PathFileType	4	(X/Y/Z)	Patient4_TMGait_0pt2_02_left_23.trc.trc
DataRate	CameraRate	NumFrames	NumMarkers	Units	OrigDataRate	OrigDataStartFrame	OrigNumFrames
48.109965635739	48.109965635739	4	33	mm	48.109965635739	1	       141
Frame#	Time	R.Midfoot.Superior			Sacral			L.Shoulder			Chest			R.Shoulder			Neck			R.ASIS			L.ASIS			R.Thigh.Superior			R.Thigh.Lateral			R.Thigh.Inferior			R.Patella			L.Thigh.Superior			L.Thigh.Lateral			L.Thigh.Inferior			L.Patella			L.Shank.Superior			L.Shank.Lateral			L.Shank.Inferior			R.Shank.Superior			R.Shank.Lateral			R.Shank.Inferior			R.Heel			R.Midfoot.Lateral			R.Toe			L.Heel			L.Midfoot.Lateral			L.Midfoot.Superior			L.Toe			L.Elbow			L.Wrist			R.Elbow			R.Wrist			
		X1	Y1	Z1	X2	Y2	Z2	X3	Y3	Z3	X4	Y4	Z4	X5	Y5	Z5	X6	Y6	Z6	X7	Y7	Z7	X8	Y8	Z8	X9	Y9	Z9	X10	Y10	Z10	X11	Y11	Z11	X12	Y12	Z12	X13	Y13	Z13	X14	Y14	Z14	X15	Y15	Z15	X16	Y16	Z16	X17	Y17	Z17	X18	Y18	Z18	X19	Y19	Z19	X20	Y20	Z20	X21	Y21	Z21	X22	Y22	Z22	X23	Y23	Z23	X24	Y24	Z24	X25	Y25	Z25	X26	Y26	Z26	X27	Y27	Z27	X28	Y28	Z28	X29	Y29	Z29	X30	Y30	Z30	X31	Y31	Z31	X32	Y32	Z32	X33	Y33	Z33	

1	51.830000000000	1212.152487669149	96.048998457788	591.098214974660	989.954014573710	986.074929108822	587.812200793046	1175.924035955422	1402.511671886294	378.452976294499	1281.914031329009	1336.644753815742	537.476359739970	1212.500295710993	1420.312618255516	711.902864810180	1167.465856136335	1473.387116851319	533.407975683123	1231.131704597055	919.933688978269	684.965122870248	1190.910363481344	943.517750587350	413.955755897487	1290.215855894125	731.562255284007	628.312274272704	1228.741066753147	607.488419024955	682.196315195143	1299.443830727513	570.942830291184	585.779518131557	1308.954703507258	474.585309801815	583.515509368159	1281.562466143341	766.507543708143	436.431464747471	1242.322289145906	639.945063800052	354.522536272152	1342.899627784966	578.278599376206	416.275453125795	1356.035681240590	488.864427712967	402.737830331139	1286.864633211191	423.614453302991	386.361553706209	1145.587179767967	390.332899235891	327.707430168040	1126.920802950857	255.948857083637	370.024280670939	1263.620007450567	385.477348268185	590.766596661084	1184.782516178640	290.598018145898	658.496352251562	1198.333197607675	195.334234606187	587.538557270644	1037.682456137058	44.264165597844	574.342272576758	1127.912853013121	37.779206039334	639.623152518660	1334.151242604197	43.505816139774	608.788578789306	932.749375165867	197.648431510005	395.019446149535	989.916812444496	153.824505540518	313.038081703309	1095.242345567752	154.601901671268	336.673275498890	1168.196704453825	40.984959108605	302.078334686656	1169.911434654122	1037.234922257944	287.650441551774	1236.398508700683	786.156452300832	296.786739310027	1254.501068393579	1076.671350266104	851.044742734233	1464.682637364095	920.268703885792	841.390672647377	
2	51.850785714286	1207.980048426848	95.930367499488	590.990267266839	989.273167018391	984.461005847259	592.544832457012	1171.269343439755	1400.292245432067	379.363512902617	1280.758059686460	1334.486985829132	535.879256769048	1215.687987939667	1418.556437936205	711.731019509486	1166.824693537727	1471.595875848221	534.067432619962	1232.019499433807	918.359911215116	685.356107057248	1187.264597989338	941.934192630201	414.982183336566	1290.363787127634	730.149268857710	627.575356766113	1230.085742024154	605.918982803313	681.823907880876	1299.335799256741	569.697236293034	584.547158923738	1308.818456977065	472.954438641722	581.918159185762	1280.500558483054	768.089927627652	437.122781495445	1241.850798605239	640.874690068161	355.601901106441	1344.833013875481	580.944835677169	416.587627050525	1359.864955478040	492.461671457504	403.054879874698	1293.631092139163	425.625290819182	386.558796837919	1153.898947077800	385.585719382989	330.010237506995	1143.487432445108	250.599143514621	370.903899418885	1262.644404476135	383.969379968882	589.731781764247	1183.474801908569	289.732243592688	658.069871421065	1195.512341787130	194.464956704246	587.092016200518	1033.541781734900	44.291666350029	574.463051476955	1123.761229189994	37.772306244144	639.729996287178	1330.023292487974	43.305230351402	608.759667872213	954.780317983317	180.686400052540	398.696700945584	1012.116320995351	142.251223413297	314.856827396344	1116.849574943243	149.161755818549	336.761508059093	1195.242063906444	41.816763907220	298.428351428966	1149.004585241746	1036.450309791784	289.766039185477	1198.988308601375	783.552424402051	300.345967651900	1274.096458147041	1079.734644539363	850.833702417497	1493.070768131615	941.690270108712	835.024595044003	
3	51.871571428571	1203.659589765043	95.820727616198	590.915586702035	988.708834325178	983.236496288732	597.414365939020	1166.476093779224	1398.489623375933	380.334899596850	1279.602826195617	1332.670966043176	534.158006341402	1219.119129178091	1417.138197639285	711.471070250314	1166.190496143767	1470.143159401870	534.752997298366	1232.971895066514	917.045731713959	685.586088481340	1183.467175781431	940.674924964190	415.939093194935	1290.282379632197	728.831429432077	626.780376827394	1231.074397564192	604.547210630350	681.526726611183	1298.755764986556	568.541680351144	583.352353420918	1308.122692698688	471.472593693247	580.422114556854	1279.046296320168	769.730824442656	437.710494271444	1240.780519172373	641.859844930932	356.669249324439	1345.975691037555	583.568962299252	416.841931092564	1362.936501417875	496.217232556705	403.304369665444	1299.975785249516	427.800347638951	386.701376684998	1162.398928268778	380.379433566042	332.087929600122	1160.893946724233	245.095825553759	371.608740039845	1261.187459626489	382.627253754220	588.792543851929	1181.807990174836	288.942914046996	657.747739617200	1192.400983195383	193.697545400530	586.719118188890	1029.242583938016	44.319481989322	574.601077866062	1119.463126272558	37.756580883707	639.848178996021	1325.744666924033	43.116559750172	608.725487973387	978.449297355528	163.028783172014	402.040451474823	1036.063380660172	130.055079587230	316.474394854418	1139.925510476567	143.496103901041	336.727955585627	1224.012490165737	42.827906933371	294.959973245986	1127.505189101689	1036.498354172621	291.978586630922	1161.117815612027	781.983551850938	304.066124907306	1294.190114743681	1083.492685021972	850.324206395119	1521.594114274088	964.456689922044	828.026303114595	
4	51.892357142857	1199.270359922227	95.726592132969	590.889996121876	988.321436741312	982.607537282823	602.281619699698	1161.668575967574	1397.340567790270	381.357344556772	1278.493463844618	1331.399677766306	532.322281029720	1222.766047526763	1416.242275350801	711.086176283452	1165.592027809710	1469.217328380835	535.447881182950	1233.976151981823	916.142127360914	685.577741651716	1179.599539006698	939.919275631553	416.757460147860	1289.862162957190	727.693956245422	625.939791314755	1231.498899588240	603.507309483375	681.357200872431	1297.508199394666	567.553112422179	582.273524424199	1306.631588942169	470.256788836920	579.137787262439	1277.085910371400	771.393259751460	438.126079007118	1238.909030364892	642.900772951602	357.652852133034	1345.970631511324	586.049138757801	416.985386469857	1364.830659563198	500.069126968884	403.433512868312	1305.490347439954	430.148363862250	386.748325373151	1170.859022768918	374.778537612760	333.758538810370	1178.817381127059	239.655154562040	372.037556920365	1259.077179237061	381.570515819588	588.036410372046	1179.669139649035	288.290274507873	657.592455445565	1188.974984979440	193.102698942223	586.466661371877	1024.860911437427	44.346812103560	574.758160457672	1115.098687558663	37.730617351019	639.979940534557	1321.392697562929	42.950749663507	608.685047521298	1003.502904940748	145.199394340565	404.793415020153	1061.551717748473	117.538690997129	317.766187219500	1164.200329407740	137.786674176478	336.533131010725	1254.105360553689	44.058337151669	291.924169822218	1105.958923201941	1037.732442588392	294.265557929280	1123.988397857769	781.937552912970	307.910017623526	1314.280136100390	1088.111856586803	849.357272574437	1549.250788967545	988.356616054722	820.328869049170	
